PathFileType	4	(X/Y/Z)	s04c0403.trc
DataRate	CameraRate	NumFrames	NumMarkers	Units	OrigDataRate	OrigDataStartFrame	OrigNumFrames
200	200	4	50	mm	200	1250	2000
Frame#	Time	racr			lacr			c7			jug			rlel			rdr			llel			ldr			s2			lic			ric			lasi			rasi			rpsi			lpsi			rgt			lgt			rth1			rth2			rth3			rth4			rlfc			rmfc			rsh1			rsh2			rsh3			rsh4			rlmal			rmmal			rcal			rtoe			rmt5			lth1			lth2			lth4			lth3			llfc			lmfc			lsh1			lsh2			lsh3			lsh4			llmal			lmmal			lcal			ltoe			lmt5			SBIKE			LBIKE			RBIKE			
		X1	Y1	Z1	X2	Y2	Z2	X3	Y3	Z3	X4	Y4	Z4	X5	Y5	Z5	X6	Y6	Z6	X7	Y7	Z7	X8	Y8	Z8	X9	Y9	Z9	X10	Y10	Z10	X11	Y11	Z11	X12	Y12	Z12	X13	Y13	Z13	X14	Y14	Z14	X15	Y15	Z15	X16	Y16	Z16	X17	Y17	Z17	X18	Y18	Z18	X19	Y19	Z19	X20	Y20	Z20	X21	Y21	Z21	X22	Y22	Z22	X23	Y23	Z23	X24	Y24	Z24	X25	Y25	Z25	X26	Y26	Z26	X27	Y27	Z27	X28	Y28	Z28	X29	Y29	Z29	X30	Y30	Z30	X31	Y31	Z31	X32	Y32	Z32	X33	Y33	Z33	X34	Y34	Z34	X35	Y35	Z35	X36	Y36	Z36	X37	Y37	Z37	X38	Y38	Z38	X39	Y39	Z39	X40	Y40	Z40	X41	Y41	Z41	X42	Y42	Z42	X43	Y43	Z43	X44	Y44	Z44	X45	Y45	Z45	X46	Y46	Z46	X47	Y47	Z47	X48	Y48	Z48	X49	Y49	Z49	X50	Y50	Z50	
1250	6.2500	854.352895	1276.278818	-154.469351	852.497308	1213.495309	-474.333173	882.392616	1331.570886	-324.968338	809.337930	1191.434497	-307.845457	590.631594	1170.321023	17.213369	705.551894	938.900426	-80.366877	605.410835	1145.471133	-638.032692	688.455719	942.116354	-507.823285	282.201900	1285.769424	-236.457099	397.075815	1271.944211	-414.448168	457.716637	1231.671965	-101.378589	437.934219	1217.394898	-387.207953	471.740343	1172.033041	-154.383507	333.000713	1312.667574	-196.637717	319.005510	1327.412813	-269.083841	383.691849	1181.878300	-82.068356	359.246257	1201.422493	-443.663664	394.712212	1021.708504	-65.277801	409.679654	935.558037	-76.314463	383.729439	854.249300	-80.787453	442.756565	935.334306	-93.585840	368.022406	706.310260	-109.302782	332.985991	697.312861	-219.847230	289.125491	608.287986	-79.625621	257.554735	524.186429	-95.959345	189.678058	471.142478	-100.111494	284.540434	509.578985	-119.909940	113.339767	335.839585	-104.838256	132.040274	336.613537	-189.916447	47.335543	357.131370	-137.181809	249.373328	133.550092	-173.701880	191.985832	158.381772	-108.743174	409.321047	1128.633346	-451.781080	485.258232	1087.189196	-459.717619	510.632000	1111.788570	-449.075012	531.600299	1011.829679	-468.438411	626.659127	886.483046	-459.089715	657.170346	853.544631	-347.147416	559.969221	797.992877	-480.529858	512.213542	726.774302	-461.763860	432.881576	686.143790	-458.702346	533.440393	707.018270	-435.475569	318.611890	589.110797	-450.772464	0.000000	0.000000	-0.000000	238.863286	617.694640	-411.148085	467.362392	419.869616	-413.214786	389.949935	435.065323	-476.192763	-184.629800	930.658602	-286.325635	-17.569416	79.471088	-485.213064	-17.502799	79.505862	-84.611552	
1251	6.2550	853.687865	1276.442635	-154.594623	851.335192	1211.900690	-473.824473	882.443727	1330.644279	-324.787381	807.908919	1191.363879	-307.259748	590.101304	1170.225872	17.146551	705.419705	938.925583	-80.281206	605.316448	1145.295878	-639.263990	688.268795	942.309192	-508.308616	282.224588	1287.591990	-238.277337	397.496127	1271.809795	-415.164773	457.015105	1234.431391	-102.083165	437.195200	1216.842610	-387.264649	471.513124	1173.966054	-153.996795	333.379536	1314.387981	-199.342277	319.237853	1329.249919	-270.849381	383.533375	1184.138542	-82.319619	359.582605	1202.477425	-444.432783	398.238383	1022.864995	-66.646323	415.350227	937.074088	-78.112028	391.691528	855.062791	-82.172545	448.093880	937.804277	-95.902025	378.129738	707.183755	-109.819956	343.296351	698.612368	-219.851131	295.385365	611.663706	-79.988742	261.099737	528.647950	-96.448715	191.406915	477.877451	-101.011174	287.220038	513.121598	-120.678254	109.702460	344.878835	-106.338044	129.958900	345.143163	-191.305316	44.475678	368.204046	-140.697654	240.542900	137.706807	-172.081539	183.002942	165.159072	-108.257893	407.484204	1128.835382	-452.531534	482.712464	1086.206924	-459.930205	508.208003	1110.996639	-449.803835	527.885492	1010.103332	-468.404753	623.170182	882.032013	-458.985589	653.343808	850.015743	-347.318611	557.078886	792.427178	-479.932542	510.567582	720.515454	-462.067769	432.002212	678.428418	-459.103197	532.136702	701.096880	-435.761980	319.577341	579.767883	-451.480355	0.000000	0.000000	-0.000000	238.462620	604.993223	-411.993290	475.511739	417.678655	-413.667317	397.484031	428.980311	-476.645918	-184.638210	930.668311	-286.539957	-17.560157	79.448993	-485.234351	-17.486357	79.547115	-84.618734	
1252	6.2600	853.060666	1276.587209	-154.367910	850.039799	1210.907120	-473.192466	882.479790	1330.191296	-324.392474	806.529543	1191.714246	-306.765998	589.518596	1170.039704	17.217273	705.303057	938.959267	-80.169939	605.155812	1145.175714	-640.412113	688.047462	942.447391	-508.861946	282.297969	1289.172757	-240.328423	397.941278	1271.479775	-416.036941	456.072118	1237.903696	-101.778017	436.464453	1216.107990	-387.497238	471.276040	1175.909364	-153.562206	333.668456	1315.992581	-202.303428	319.147222	1330.693965	-272.659227	383.457798	1186.472139	-82.607303	359.193019	1203.104271	-444.825146	402.263828	1024.059784	-67.878549	421.487255	938.795447	-79.986733	399.937111	856.221644	-83.631781	454.084472	940.615066	-98.272001	388.717250	708.468295	-110.222809	354.360414	700.041802	-220.187141	302.114101	615.283002	-80.388686	265.157865	533.384481	-97.104563	193.791060	485.117201	-102.008005	290.880890	517.200882	-121.411626	106.991246	354.582945	-107.911421	128.600729	353.995165	-193.025904	42.685420	379.496379	-144.207287	231.615474	141.869387	-170.488768	174.810857	172.655506	-107.837240	405.577907	1128.398462	-453.132968	479.939750	1084.577240	-460.407523	506.169417	1108.603726	-450.409614	523.862371	1007.635779	-468.589800	619.733275	877.715637	-458.191945	648.809258	845.582207	-347.622980	553.675241	785.766158	-480.353573	508.540653	712.957840	-462.322411	430.691236	669.501005	-459.338976	530.299863	694.097552	-435.900566	320.177820	569.586606	-452.325618	0.000000	0.000000	-0.000000	237.752506	591.378659	-412.516475	482.944973	414.782358	-414.207993	404.433778	422.356531	-477.153479	-184.548302	930.671119	-286.736687	-17.560050	79.421897	-485.249770	-17.473747	79.570332	-84.634900	
1253	6.2650	852.330253	1276.751642	-153.804212	848.773056	1210.391700	-472.461980	882.413246	1329.951569	-323.577275	805.123661	1192.232422	-306.024714	588.843683	1169.853409	17.386030	705.198215	938.970484	-80.041214	604.894741	1145.036975	-641.391801	687.673662	942.431292	-509.245422	282.377646	1290.692255	-242.325136	398.347979	1270.883384	-417.205209	454.838164	1240.201488	-102.649797	435.821334	1215.220742	-388.036823	471.057117	1177.823400	-153.215445	333.766998	1317.366376	-205.253358	319.114368	1331.890581	-274.674209	384.009196	1188.754014	-82.588381	358.587492	1203.218633	-445.309359	406.616336	1025.583041	-68.955963	427.980412	940.924396	-81.870551	408.944790	857.598476	-84.977578	460.062045	943.614290	-100.890976	399.452315	709.993310	-110.523060	365.912215	701.435688	-220.636831	309.194910	619.157521	-80.960501	269.632263	538.602634	-97.827940	196.723164	492.690149	-103.160841	294.889636	521.535719	-122.323919	105.290703	364.663857	-109.667912	127.864809	363.087829	-194.788962	42.230351	391.260987	-148.440246	223.251008	146.478724	-168.840462	166.449203	180.668590	-107.965259	403.555751	1127.129581	-453.693424	477.153722	1082.094567	-461.060856	503.713391	1105.702268	-451.569959	519.780192	1004.282178	-468.832990	614.679647	872.511285	-457.915184	643.692384	840.360536	-348.042593	549.999246	777.816330	-481.153865	506.166204	704.380489	-462.533966	429.123948	659.606845	-459.504088	528.254248	686.149250	-435.869138	320.463370	558.198085	-452.529235	0.000000	0.000000	-0.000000	236.978563	577.045238	-412.752436	489.838017	411.178904	-414.748992	411.003984	415.120634	-477.557832	-184.484092	930.682066	-286.949679	-17.552698	79.360038	-485.284931	-17.453301	79.618721	-84.652575	
